HIERARCHY
ROOT Hips
{
    OFFSET 0.000000 97.120003 0.000000
    CHANNELS 6 Xposition Yposition Zposition Yrotation Xrotation Zrotation
    JOINT RightUpLeg
    {
        OFFSET -11.000000 -0.000000 0.000000
        CHANNELS 3 Yrotation Xrotation Zrotation
        JOINT RightLeg
        {
            OFFSET 0.000000 -45.062000 0.000000
            CHANNELS 3 Yrotation Xrotation Zrotation
            JOINT RightFoot
            {
                OFFSET 0.000000 -42.057999 0.000000
                CHANNELS 3 Yrotation Xrotation Zrotation
                End Site
                {
                    OFFSET 0.000000 -10.000000 15.120000
                }
            }
        }
    }
    JOINT LeftUpLeg
    {
        OFFSET 11.000000 -0.000000 0.000000
        CHANNELS 3 Yrotation Xrotation Zrotation
        JOINT LeftLeg
        {
            OFFSET 0.000000 -45.062000 0.000000
            CHANNELS 3 Yrotation Xrotation Zrotation
            JOINT LeftFoot
            {
                OFFSET 0.000000 -42.057999 0.000000
                CHANNELS 3 Yrotation Xrotation Zrotation
                End Site
                {
                    OFFSET 0.000000 -10.000000 15.120000
                }
            }
        }
    }
    JOINT Spine
    {
        OFFSET 0.000000 8.120000 0.000000
        CHANNELS 3 Yrotation Xrotation Zrotation
        JOINT Spine1
        {
            OFFSET 0.000000 17.980000 0.000000
            CHANNELS 3 Yrotation Xrotation Zrotation
            JOINT Spine2
            {
                OFFSET 0.000000 12.760000 0.000000
                CHANNELS 3 Yrotation Xrotation Zrotation
                JOINT Neck
                {
                    OFFSET 0.000000 19.139999 0.000000
                    CHANNELS 3 Yrotation Xrotation Zrotation
                    JOINT Neck1
                    {
                        OFFSET 0.000000 4.250000 0.000000
                        CHANNELS 3 Yrotation Xrotation Zrotation
                        JOINT Head
                        {
                            OFFSET 0.000000 4.250000 0.000000
                            CHANNELS 3 Yrotation Xrotation Zrotation
                            End Site
                            {
                                OFFSET 0.000000 19.120001 0.000000
                            }
                        }
                    }
                }
                JOINT RightShoulder
                {
                    OFFSET -2.900000 13.340000 0.000000
                    CHANNELS 3 Yrotation Xrotation Zrotation
                    JOINT RightArm
                    {
                        OFFSET -16.100000 0.000000 0.000000
                        CHANNELS 3 Yrotation Xrotation Zrotation
                        JOINT RightForeArm
                        {
                            OFFSET -28.000000 0.000000 0.000000
                            CHANNELS 3 Yrotation Xrotation Zrotation
                            JOINT RightHand
                            {
                                OFFSET -26.000000 0.000000 0.000000
                                CHANNELS 3 Yrotation Xrotation Zrotation
                                JOINT RightHandThumb1
                                {
                                    OFFSET -1.937000 -0.484000 2.518000
                                    CHANNELS 3 Yrotation Xrotation Zrotation
                                    JOINT RightHandThumb2
                                    {
                                        OFFSET -3.872000 0.000000 0.000000
                                        CHANNELS 3 Yrotation Xrotation Zrotation
                                        JOINT RightHandThumb3
                                        {
                                            OFFSET -2.690000 0.000000 0.000000
                                            CHANNELS 3 Yrotation Xrotation Zrotation
                                            End Site
                                            {
                                                OFFSET -2.537000 0.000000 0.000000
                                            }
                                        }
                                    }
                                }
                                JOINT RightInHandIndex
                                {
                                    OFFSET -3.389000 0.535000 2.080000
                                    CHANNELS 3 Yrotation Xrotation Zrotation
                                    JOINT RightHandIndex1
                                    {
                                        OFFSET -5.485000 -0.096000 1.051000
                                        CHANNELS 3 Yrotation Xrotation Zrotation
                                        JOINT RightHandIndex2
                                        {
                                            OFFSET -3.806000 0.000000 0.000000
                                            CHANNELS 3 Yrotation Xrotation Zrotation
                                            JOINT RightHandIndex3
                                            {
                                                OFFSET -2.158000 0.000000 0.000000
                                                CHANNELS 3 Yrotation Xrotation Zrotation
                                                End Site
                                                {
                                                    OFFSET -1.898000 0.000000 0.000000
                                                }
                                            }
                                        }
                                    }
                                }
                                JOINT RightInHandMiddle
                                {
                                    OFFSET -3.556000 0.544000 0.796000
                                    CHANNELS 3 Yrotation Xrotation Zrotation
                                    JOINT RightHandMiddle1
                                    {
                                        OFFSET -5.441000 -0.088000 0.330000
                                        CHANNELS 3 Yrotation Xrotation Zrotation
                                        JOINT RightHandMiddle2
                                        {
                                            OFFSET -4.153000 0.000000 0.000000
                                            CHANNELS 3 Yrotation Xrotation Zrotation
                                            JOINT RightHandMiddle3
                                            {
                                                OFFSET -2.603000 0.000000 0.000000
                                                CHANNELS 3 Yrotation Xrotation Zrotation
                                                End Site
                                                {
                                                    OFFSET -2.076000 0.000000 0.000000
                                                }
                                            }
                                        }
                                    }
                                }
                                JOINT RightInHandRing
                                {
                                    OFFSET -3.539000 0.566000 -0.136000
                                    CHANNELS 3 Yrotation Xrotation Zrotation
                                    JOINT RightHandRing1
                                    {
                                        OFFSET -4.873000 -0.023000 -0.504000
                                        CHANNELS 3 Yrotation Xrotation Zrotation
                                        JOINT RightHandRing2
                                        {
                                            OFFSET -3.619000 0.000000 0.000000
                                            CHANNELS 3 Yrotation Xrotation Zrotation
                                            JOINT RightHandRing3
                                            {
                                                OFFSET -2.511000 0.000000 0.000000
                                                CHANNELS 3 Yrotation Xrotation Zrotation
                                                End Site
                                                {
                                                    OFFSET -1.952000 0.000000 0.000000
                                                }
                                            }
                                        }
                                    }
                                }
                                JOINT RightInHandPinky
                                {
                                    OFFSET -3.324000 0.494000 -1.264000
                                    CHANNELS 3 Yrotation Xrotation Zrotation
                                    JOINT RightHandPinky1
                                    {
                                        OFFSET -4.354000 -0.023000 -1.147000
                                        CHANNELS 3 Yrotation Xrotation Zrotation
                                        JOINT RightHandPinky2
                                        {
                                            OFFSET -2.898000 0.000000 0.000000
                                            CHANNELS 3 Yrotation Xrotation Zrotation
                                            JOINT RightHandPinky3
                                            {
                                                OFFSET -1.831000 0.000000 0.000000
                                                CHANNELS 3 Yrotation Xrotation Zrotation
                                                End Site
                                                {
                                                    OFFSET -1.730000 0.000000 0.000000
                                                }
                                            }
                                        }
                                    }
                                }
                            }
                        }
                    }
                }
                JOINT LeftShoulder
                {
                    OFFSET 2.900000 13.340000 0.000000
                    CHANNELS 3 Yrotation Xrotation Zrotation
                    JOINT LeftArm
                    {
                        OFFSET 16.100000 0.000000 0.000000
                        CHANNELS 3 Yrotation Xrotation Zrotation
                        JOINT LeftForeArm
                        {
                            OFFSET 28.000000 0.000000 0.000000
                            CHANNELS 3 Yrotation Xrotation Zrotation
                            JOINT LeftHand
                            {
                                OFFSET 26.000000 0.000000 0.000000
                                CHANNELS 3 Yrotation Xrotation Zrotation
                                JOINT LeftHandThumb1
                                {
                                    OFFSET 1.937000 -0.484000 2.518000
                                    CHANNELS 3 Yrotation Xrotation Zrotation
                                    JOINT LeftHandThumb2
                                    {
                                        OFFSET 3.872000 0.000000 0.000000
                                        CHANNELS 3 Yrotation Xrotation Zrotation
                                        JOINT LeftHandThumb3
                                        {
                                            OFFSET 2.690000 0.000000 0.000000
                                            CHANNELS 3 Yrotation Xrotation Zrotation
                                            End Site
                                            {
                                                OFFSET 2.537000 0.000000 0.000000
                                            }
                                        }
                                    }
                                }
                                JOINT LeftInHandIndex
                                {
                                    OFFSET 3.389000 0.535000 2.080000
                                    CHANNELS 3 Yrotation Xrotation Zrotation
                                    JOINT LeftHandIndex1
                                    {
                                        OFFSET 5.485000 -0.096000 1.051000
                                        CHANNELS 3 Yrotation Xrotation Zrotation
                                        JOINT LeftHandIndex2
                                        {
                                            OFFSET 3.806000 0.000000 0.000000
                                            CHANNELS 3 Yrotation Xrotation Zrotation
                                            JOINT LeftHandIndex3
                                            {
                                                OFFSET 2.158000 0.000000 0.000000
                                                CHANNELS 3 Yrotation Xrotation Zrotation
                                                End Site
                                                {
                                                    OFFSET 1.898000 0.000000 0.000000
                                                }
                                            }
                                        }
                                    }
                                }
                                JOINT LeftInHandMiddle
                                {
                                    OFFSET 3.556000 0.544000 0.796000
                                    CHANNELS 3 Yrotation Xrotation Zrotation
                                    JOINT LeftHandMiddle1
                                    {
                                        OFFSET 5.441000 -0.088000 0.330000
                                        CHANNELS 3 Yrotation Xrotation Zrotation
                                        JOINT LeftHandMiddle2
                                        {
                                            OFFSET 4.153000 0.000000 0.000000
                                            CHANNELS 3 Yrotation Xrotation Zrotation
                                            JOINT LeftHandMiddle3
                                            {
                                                OFFSET 2.603000 0.000000 0.000000
                                                CHANNELS 3 Yrotation Xrotation Zrotation
                                                End Site
                                                {
                                                    OFFSET 2.076000 0.000000 0.000000
                                                }
                                            }
                                        }
                                    }
                                }
                                JOINT LeftInHandRing
                                {
                                    OFFSET 3.539000 0.566000 -0.136000
                                    CHANNELS 3 Yrotation Xrotation Zrotation
                                    JOINT LeftHandRing1
                                    {
                                        OFFSET 4.873000 -0.023000 -0.504000
                                        CHANNELS 3 Yrotation Xrotation Zrotation
                                        JOINT LeftHandRing2
                                        {
                                            OFFSET 3.619000 0.000000 0.000000
                                            CHANNELS 3 Yrotation Xrotation Zrotation
                                            JOINT LeftHandRing3
                                            {
                                                OFFSET 2.511000 0.000000 0.000000
                                                CHANNELS 3 Yrotation Xrotation Zrotation
                                                End Site
                                                {
                                                    OFFSET 1.952000 0.000000 0.000000
                                                }
                                            }
                                        }
                                    }
                                }
                                JOINT LeftInHandPinky
                                {
                                    OFFSET 3.324000 0.494000 -1.264000
                                    CHANNELS 3 Yrotation Xrotation Zrotation
                                    JOINT LeftHandPinky1
                                    {
                                        OFFSET 4.354000 -0.023000 -1.147000
                                        CHANNELS 3 Yrotation Xrotation Zrotation
                                        JOINT LeftHandPinky2
                                        {
                                            OFFSET 2.898000 0.000000 0.000000
                                            CHANNELS 3 Yrotation Xrotation Zrotation
                                            JOINT LeftHandPinky3
                                            {
                                                OFFSET 1.831000 0.000000 0.000000
                                                CHANNELS 3 Yrotation Xrotation Zrotation
                                                End Site
                                                {
                                                    OFFSET 1.730000 0.000000 0.000000
                                                }
                                            }
                                        }
                                    }
                                }
                            }
                        }
                    }
                }
            }
        }
    }
}
MOTION
Frames: 4
Frame Time: 0.011111
0.000000 97.119995 0.000000 0.000000 0.000000 0.000000 0.000000 0.000000 0.000000 0.000000 0.000000 0.000000 0.000000 0.000000 0.000000 0.000000 0.000000 0.000000 0.000000 0.000000 0.000000 0.000000 0.000000 0.000000 0.000000 0.000000 0.000000 0.000000 0.000000 0.000000 0.000000 0.000000 0.000000 0.000000 0.000000 0.000000 0.000000 0.000000 0.000000 0.000000 0.000000 0.000000 0.000000 0.000000 0.000000 0.000000 0.000000 0.000000 0.000000 0.000000 0.000000 0.000000 0.000000 0.000000 0.000000 0.000000 0.000000 0.000000 0.000000 0.000000 0.000000 0.000000 0.000000 0.000000 0.000000 0.000000 0.000000 0.000000 0.000000 0.000000 0.000000 0.000000 0.000000 0.000000 0.000000 0.000000 0.000000 0.000000 0.000000 0.000000 0.000000 0.000000 0.000000 0.000000 0.000000 0.000000 0.000000 0.000000 0.000000 0.000000 0.000000 0.000000 0.000000 0.000000 0.000000 0.000000 0.000000 0.000000 0.000000 0.000000 0.000000 0.000000 0.000000 0.000000 0.000000 0.000000 0.000000 0.000000 0.000000 0.000000 0.000000 0.000000 0.000000 0.000000 0.000000 0.000000 0.000000 0.000000 0.000000 0.000000 0.000000 0.000000 0.000000 0.000000 0.000000 0.000000 0.000000 0.000000 0.000000 0.000000 0.000000 0.000000 0.000000 0.000000 0.000000 0.000000 0.000000 0.000000 0.000000 0.000000 0.000000 0.000000 0.000000 0.000000 0.000000 0.000000 0.000000 0.000000 0.000000 0.000000 0.000000 0.000000 0.000000 0.000000 0.000000 0.000000 0.000000 0.000000 0.000000 0.000000 0.000000 0.000000 0.000000 0.000000 0.000000 0.000000 0.000000 0.000000 0.000000 0.000000 0.000000 0.000000 0.000000 0.000000 0.000000 0.000000 0.000000 0.000000 0.000000 0.000000
-0.308799 96.970123 -0.016646 1.806252 0.415766 1.048178 179.808441 177.835953 177.356018 176.984451 178.326523 179.489517 1.252998 -4.574552 2.491696 178.821884 178.069138 -178.130600 178.371384 178.383835 179.320541 1.216648 -3.663960 -2.037374 179.957199 176.203384 179.965103 179.957199 176.276413 179.943771 179.806198 177.298981 179.914337 0.000000 -5.155927 0.119953 0.000000 -6.015238 0.124237 3.643970 -4.435527 -0.206843 1.822858 -0.211526 0.233674 12.672967 -5.456550 81.930779 2.613914 -1.511244 0.802222 175.190948 -177.381760 175.476471 34.655735 48.437866 15.407996 0.000003 -0.000006 16.578533 179.999985 -180.000000 -168.958710 0.000001 -0.000000 -0.000000 15.000004 0.000002 32.050747 180.000000 179.999985 -153.776672 0.000001 0.000001 18.356354 0.000001 -0.000000 -0.000000 180.000000 179.999985 -142.999466 180.000000 179.999985 -142.999435 180.000000 180.000000 -155.357605 0.000001 -0.000000 -0.000000 170.000000 -179.999985 -145.222198 180.000000 180.000000 -145.222214 0.000000 -0.000000 23.162014 0.000001 -0.000000 -0.000000 160.000015 180.000000 -161.035263 180.000000 -179.999985 -151.552948 0.000000 0.000002 18.945747 176.340973 -177.441315 178.977036 166.582825 -173.412445 98.321693 179.274826 -178.747253 -179.576538 10.285807 -0.055082 0.481375 133.824631 125.243309 156.014755 0.000000 -0.000002 -14.337947 0.000003 0.000004 -9.549072 0.000000 -0.000000 0.000000 164.999985 179.999969 148.574799 0.000002 0.000031 -25.711531 0.000010 0.000018 -17.998062 0.000000 -0.000000 0.000000 180.000000 180.000000 144.696503 180.000000 180.000000 144.696533 180.000000 -180.000000 156.487915 0.000000 -0.000000 0.000000 10.000010 -0.000005 -31.947311 0.000000 0.000000 -31.947260 180.000000 -180.000000 158.723129 0.000000 -0.000000 0.000000 19.999990 0.000007 -25.522346 180.000000 -179.999985 141.716461 0.000005 -0.000001 -25.496851
-0.307148 96.966354 0.032115 1.787357 0.483287 1.035449 179.805328 177.874374 177.363358 177.000778 178.340012 179.491989 1.259033 -4.589894 2.493706 178.824463 178.104370 -178.111923 178.379044 178.384369 179.318451 1.226357 -3.699357 -2.042944 179.957870 176.206451 179.966461 179.957870 176.279404 179.945999 179.809143 177.301132 179.917450 180.000000 -174.844482 -179.870483 180.000000 -173.985229 -179.865875 3.655629 -4.435499 -0.201750 1.822061 -0.217832 0.233056 12.666165 -5.446370 81.926117 2.616619 -1.509693 0.808296 175.185196 -177.392975 175.488892 34.670429 48.441063 15.417279 0.000007 -0.000001 16.576180 0.000001 -0.000005 11.039713 0.000000 -0.000001 -0.000003 15.000009 -0.000000 32.057793 0.000002 0.000001 26.229094 180.000000 -180.000000 -161.639633 0.000000 -0.000001 -0.000003 180.000000 179.999985 -142.994583 180.000000 179.999985 -142.994598 180.000000 180.000000 -155.354401 0.000000 -0.000001 -0.000003 170.000000 -179.999985 -145.221313 0.000003 -0.000001 34.778702 0.000002 -0.000000 23.162603 0.000000 -0.000001 -0.000003 160.000000 180.000000 -161.033356 0.000001 0.000005 28.449995 0.000005 -0.000001 18.947687 176.342468 -177.438782 179.025620 166.592514 -173.421341 98.283974 179.279205 -178.746582 -179.585770 10.270036 -0.044952 0.473711 133.808319 125.232956 155.981461 0.000008 0.000006 -14.344741 180.000000 -179.999985 170.446396 180.000000 -180.000000 179.999985 165.000000 -179.999985 148.521118 180.000000 -179.999985 154.244537 180.000000 -180.000000 161.971222 180.000000 -180.000000 179.999985 0.000005 -0.000006 -35.306084 0.000001 -0.000009 -35.306061 180.000000 -179.999985 156.486176 180.000000 -180.000000 179.999985 10.000008 -0.000007 -31.946589 0.000003 -0.000010 -31.946556 180.000000 -179.999985 158.723602 180.000000 -180.000000 179.999985 20.000004 -0.000006 -25.525599 0.000001 -0.000012 -38.288425 179.999985 179.999985 154.499939
-0.306324 96.962227 0.082737 1.766828 0.553098 1.024155 179.802200 177.914719 177.371857 177.012146 178.353058 179.491974 1.270467 -4.605443 2.496113 178.838165 178.131882 -178.094513 178.388550 178.393402 179.317978 1.225930 -3.734614 -2.049068 179.957367 176.209122 179.966644 179.957367 176.282043 179.946350 179.806747 177.303055 179.917740 180.000000 -174.841278 -179.860107 180.000000 -173.981506 -179.855103 3.664151 -4.438612 -0.196079 1.832815 -0.223294 0.233904 12.661456 -5.434397 81.923523 2.621749 -1.513454 0.816975 175.181458 -177.407425 175.500671 34.682804 48.444191 15.425210 180.000000 179.999985 -163.425812 180.000000 179.999985 -168.961609 0.000000 -0.000000 0.000003 15.000010 0.000005 32.053825 180.000000 180.000000 -153.774139 180.000000 179.999985 -161.641922 0.000000 -0.000000 0.000003 180.000000 179.999985 -142.992447 180.000000 180.000000 -142.992462 180.000000 180.000000 -155.352966 0.000000 -0.000000 0.000003 170.000000 179.999985 -145.224915 0.000001 0.000002 34.775040 0.000002 0.000003 23.160181 0.000000 -0.000000 0.000003 160.000015 179.999985 -161.043335 180.000000 179.999985 -151.565018 180.000000 179.999985 -161.062302 176.351898 -177.437851 179.075027 166.605560 -173.429077 98.246986 179.283234 -178.761230 -179.588837 10.306120 -0.012143 0.443394 133.768677 125.223526 155.984451 180.000000 179.999985 165.678070 0.000001 0.000009 -9.538412 0.000000 -0.000000 0.000000 165.000000 179.999985 148.530655 0.000000 0.000006 -25.747684 0.000003 0.000005 -18.023361 0.000000 -0.000000 0.000000 180.000000 180.000000 144.706711 0.000001 0.000007 -35.293266 0.000003 0.000004 -23.505297 0.000000 -0.000000 0.000000 10.000003 0.000001 -31.934710 0.000000 0.000005 -31.934683 180.000000 180.000000 158.731461 0.000000 -0.000000 0.000000 19.999998 0.000003 -25.514309 180.000000 179.999985 141.728561 0.000010 0.000004 -25.488775
